<mxfile host="app.diagrams.net" modified="2023-11-14T11:34:05.002Z" agent="Mozilla/5.0 (Windows NT 10.0; Win64; x64) AppleWebKit/537.36 (KHTML, like Gecko) Chrome/116.0.0.0 Safari/537.36 OPR/102.0.0.0 (Edition std-1)" etag="jcGjW85RTBaP2piFtAYw" version="22.1.0" type="github">
  <diagram id="C5RBs43oDa-KdzZeNtuy" name="Page-1">
    <mxGraphModel dx="1633" dy="766" grid="1" gridSize="10" guides="1" tooltips="1" connect="1" arrows="1" fold="1" page="1" pageScale="1" pageWidth="827" pageHeight="1169" math="0" shadow="0">
      <root>
        <mxCell id="WIyWlLk6GJQsqaUBKTNV-0" />
        <mxCell id="WIyWlLk6GJQsqaUBKTNV-1" parent="WIyWlLk6GJQsqaUBKTNV-0" />
        <mxCell id="Z31rbEcBs2sJ0VjwFrCE-1" value="" style="edgeStyle=orthogonalEdgeStyle;rounded=0;orthogonalLoop=1;jettySize=auto;html=1;" edge="1" parent="WIyWlLk6GJQsqaUBKTNV-1" source="WIyWlLk6GJQsqaUBKTNV-3" target="Z31rbEcBs2sJ0VjwFrCE-0">
          <mxGeometry relative="1" as="geometry" />
        </mxCell>
        <mxCell id="WIyWlLk6GJQsqaUBKTNV-3" value="Welcome the user" style="rounded=1;whiteSpace=wrap;html=1;fontSize=12;glass=0;strokeWidth=1;shadow=0;" parent="WIyWlLk6GJQsqaUBKTNV-1" vertex="1">
          <mxGeometry x="340" y="70" width="120" height="40" as="geometry" />
        </mxCell>
        <mxCell id="Z31rbEcBs2sJ0VjwFrCE-4" value="" style="edgeStyle=orthogonalEdgeStyle;rounded=0;orthogonalLoop=1;jettySize=auto;html=1;" edge="1" parent="WIyWlLk6GJQsqaUBKTNV-1" source="Z31rbEcBs2sJ0VjwFrCE-0" target="Z31rbEcBs2sJ0VjwFrCE-3">
          <mxGeometry relative="1" as="geometry" />
        </mxCell>
        <mxCell id="Z31rbEcBs2sJ0VjwFrCE-0" value="Give receipes path to the user" style="whiteSpace=wrap;html=1;rounded=1;glass=0;strokeWidth=1;shadow=0;" vertex="1" parent="WIyWlLk6GJQsqaUBKTNV-1">
          <mxGeometry x="340" y="150" width="120" height="60" as="geometry" />
        </mxCell>
        <mxCell id="Z31rbEcBs2sJ0VjwFrCE-2" value="Yes" style="text;html=1;align=center;verticalAlign=middle;resizable=0;points=[];autosize=1;strokeColor=none;fillColor=none;" vertex="1" parent="WIyWlLk6GJQsqaUBKTNV-1">
          <mxGeometry x="410" y="120" width="40" height="30" as="geometry" />
        </mxCell>
        <mxCell id="Z31rbEcBs2sJ0VjwFrCE-7" value="" style="edgeStyle=orthogonalEdgeStyle;rounded=0;orthogonalLoop=1;jettySize=auto;html=1;" edge="1" parent="WIyWlLk6GJQsqaUBKTNV-1" source="Z31rbEcBs2sJ0VjwFrCE-3" target="Z31rbEcBs2sJ0VjwFrCE-6">
          <mxGeometry relative="1" as="geometry" />
        </mxCell>
        <mxCell id="Z31rbEcBs2sJ0VjwFrCE-9" value="" style="edgeStyle=orthogonalEdgeStyle;rounded=0;orthogonalLoop=1;jettySize=auto;html=1;" edge="1" parent="WIyWlLk6GJQsqaUBKTNV-1" source="Z31rbEcBs2sJ0VjwFrCE-3" target="Z31rbEcBs2sJ0VjwFrCE-8">
          <mxGeometry relative="1" as="geometry" />
        </mxCell>
        <mxCell id="Z31rbEcBs2sJ0VjwFrCE-11" value="" style="edgeStyle=orthogonalEdgeStyle;rounded=0;orthogonalLoop=1;jettySize=auto;html=1;" edge="1" parent="WIyWlLk6GJQsqaUBKTNV-1" source="Z31rbEcBs2sJ0VjwFrCE-3" target="Z31rbEcBs2sJ0VjwFrCE-10">
          <mxGeometry relative="1" as="geometry" />
        </mxCell>
        <mxCell id="Z31rbEcBs2sJ0VjwFrCE-12" value="" style="edgeStyle=orthogonalEdgeStyle;rounded=0;orthogonalLoop=1;jettySize=auto;html=1;" edge="1" parent="WIyWlLk6GJQsqaUBKTNV-1" source="Z31rbEcBs2sJ0VjwFrCE-3" target="Z31rbEcBs2sJ0VjwFrCE-8">
          <mxGeometry relative="1" as="geometry" />
        </mxCell>
        <mxCell id="Z31rbEcBs2sJ0VjwFrCE-16" value="" style="edgeStyle=orthogonalEdgeStyle;rounded=0;orthogonalLoop=1;jettySize=auto;html=1;" edge="1" parent="WIyWlLk6GJQsqaUBKTNV-1" source="Z31rbEcBs2sJ0VjwFrCE-3" target="Z31rbEcBs2sJ0VjwFrCE-15">
          <mxGeometry relative="1" as="geometry" />
        </mxCell>
        <mxCell id="Z31rbEcBs2sJ0VjwFrCE-36" value="" style="edgeStyle=orthogonalEdgeStyle;rounded=0;orthogonalLoop=1;jettySize=auto;html=1;" edge="1" parent="WIyWlLk6GJQsqaUBKTNV-1" source="Z31rbEcBs2sJ0VjwFrCE-3" target="Z31rbEcBs2sJ0VjwFrCE-35">
          <mxGeometry relative="1" as="geometry">
            <Array as="points">
              <mxPoint x="400" y="350" />
              <mxPoint x="400" y="350" />
            </Array>
          </mxGeometry>
        </mxCell>
        <mxCell id="Z31rbEcBs2sJ0VjwFrCE-48" value="" style="edgeStyle=orthogonalEdgeStyle;rounded=0;orthogonalLoop=1;jettySize=auto;html=1;entryX=1;entryY=0.5;entryDx=0;entryDy=0;" edge="1" parent="WIyWlLk6GJQsqaUBKTNV-1" source="Z31rbEcBs2sJ0VjwFrCE-3" target="Z31rbEcBs2sJ0VjwFrCE-49">
          <mxGeometry relative="1" as="geometry">
            <mxPoint x="800" y="760" as="targetPoint" />
            <Array as="points">
              <mxPoint x="800" y="280" />
              <mxPoint x="800" y="780" />
            </Array>
          </mxGeometry>
        </mxCell>
        <mxCell id="Z31rbEcBs2sJ0VjwFrCE-3" value="Tell the options" style="whiteSpace=wrap;html=1;rounded=1;glass=0;strokeWidth=1;shadow=0;" vertex="1" parent="WIyWlLk6GJQsqaUBKTNV-1">
          <mxGeometry x="340" y="250" width="120" height="60" as="geometry" />
        </mxCell>
        <mxCell id="Z31rbEcBs2sJ0VjwFrCE-5" value="Yes" style="text;html=1;align=center;verticalAlign=middle;resizable=0;points=[];autosize=1;strokeColor=none;fillColor=none;" vertex="1" parent="WIyWlLk6GJQsqaUBKTNV-1">
          <mxGeometry x="410" y="220" width="40" height="30" as="geometry" />
        </mxCell>
        <mxCell id="Z31rbEcBs2sJ0VjwFrCE-18" value="" style="edgeStyle=orthogonalEdgeStyle;rounded=0;orthogonalLoop=1;jettySize=auto;html=1;" edge="1" parent="WIyWlLk6GJQsqaUBKTNV-1" source="Z31rbEcBs2sJ0VjwFrCE-6" target="Z31rbEcBs2sJ0VjwFrCE-17">
          <mxGeometry relative="1" as="geometry" />
        </mxCell>
        <mxCell id="Z31rbEcBs2sJ0VjwFrCE-6" value="Option1" style="rhombus;whiteSpace=wrap;html=1;rounded=1;glass=0;strokeWidth=1;shadow=0;" vertex="1" parent="WIyWlLk6GJQsqaUBKTNV-1">
          <mxGeometry x="33" y="355" width="80" height="80" as="geometry" />
        </mxCell>
        <mxCell id="Z31rbEcBs2sJ0VjwFrCE-24" value="" style="edgeStyle=orthogonalEdgeStyle;rounded=0;orthogonalLoop=1;jettySize=auto;html=1;" edge="1" parent="WIyWlLk6GJQsqaUBKTNV-1" source="Z31rbEcBs2sJ0VjwFrCE-8">
          <mxGeometry relative="1" as="geometry">
            <mxPoint x="240" y="480" as="targetPoint" />
          </mxGeometry>
        </mxCell>
        <mxCell id="Z31rbEcBs2sJ0VjwFrCE-8" value="Option2" style="rhombus;whiteSpace=wrap;html=1;rounded=1;glass=0;strokeWidth=1;shadow=0;" vertex="1" parent="WIyWlLk6GJQsqaUBKTNV-1">
          <mxGeometry x="200" y="355" width="80" height="80" as="geometry" />
        </mxCell>
        <mxCell id="Z31rbEcBs2sJ0VjwFrCE-34" value="" style="edgeStyle=orthogonalEdgeStyle;rounded=0;orthogonalLoop=1;jettySize=auto;html=1;" edge="1" parent="WIyWlLk6GJQsqaUBKTNV-1" source="Z31rbEcBs2sJ0VjwFrCE-10">
          <mxGeometry relative="1" as="geometry">
            <mxPoint x="570" y="480" as="targetPoint" />
          </mxGeometry>
        </mxCell>
        <mxCell id="Z31rbEcBs2sJ0VjwFrCE-10" value="Option4" style="rhombus;whiteSpace=wrap;html=1;rounded=1;glass=0;strokeWidth=1;shadow=0;" vertex="1" parent="WIyWlLk6GJQsqaUBKTNV-1">
          <mxGeometry x="530" y="355" width="80" height="80" as="geometry" />
        </mxCell>
        <mxCell id="Z31rbEcBs2sJ0VjwFrCE-40" value="" style="edgeStyle=orthogonalEdgeStyle;rounded=0;orthogonalLoop=1;jettySize=auto;html=1;" edge="1" parent="WIyWlLk6GJQsqaUBKTNV-1" source="Z31rbEcBs2sJ0VjwFrCE-15" target="Z31rbEcBs2sJ0VjwFrCE-39">
          <mxGeometry relative="1" as="geometry" />
        </mxCell>
        <mxCell id="Z31rbEcBs2sJ0VjwFrCE-15" value="Option5" style="rhombus;whiteSpace=wrap;html=1;rounded=1;glass=0;strokeWidth=1;shadow=0;" vertex="1" parent="WIyWlLk6GJQsqaUBKTNV-1">
          <mxGeometry x="700" y="355" width="80" height="80" as="geometry" />
        </mxCell>
        <mxCell id="Z31rbEcBs2sJ0VjwFrCE-20" value="" style="edgeStyle=orthogonalEdgeStyle;rounded=0;orthogonalLoop=1;jettySize=auto;html=1;" edge="1" parent="WIyWlLk6GJQsqaUBKTNV-1" source="Z31rbEcBs2sJ0VjwFrCE-17" target="Z31rbEcBs2sJ0VjwFrCE-19">
          <mxGeometry relative="1" as="geometry" />
        </mxCell>
        <mxCell id="Z31rbEcBs2sJ0VjwFrCE-17" value="Ask user for a &quot;valid&quot; category" style="whiteSpace=wrap;html=1;rounded=1;glass=0;strokeWidth=1;shadow=0;" vertex="1" parent="WIyWlLk6GJQsqaUBKTNV-1">
          <mxGeometry x="13" y="480" width="120" height="60" as="geometry" />
        </mxCell>
        <mxCell id="Z31rbEcBs2sJ0VjwFrCE-22" value="" style="edgeStyle=orthogonalEdgeStyle;rounded=0;orthogonalLoop=1;jettySize=auto;html=1;" edge="1" parent="WIyWlLk6GJQsqaUBKTNV-1" source="Z31rbEcBs2sJ0VjwFrCE-19" target="Z31rbEcBs2sJ0VjwFrCE-21">
          <mxGeometry relative="1" as="geometry" />
        </mxCell>
        <mxCell id="Z31rbEcBs2sJ0VjwFrCE-19" value="Ask user for a &quot;valid&quot;&lt;br&gt;receipe inside that category" style="whiteSpace=wrap;html=1;rounded=1;glass=0;strokeWidth=1;shadow=0;" vertex="1" parent="WIyWlLk6GJQsqaUBKTNV-1">
          <mxGeometry x="13" y="585" width="120" height="60" as="geometry" />
        </mxCell>
        <mxCell id="Z31rbEcBs2sJ0VjwFrCE-61" value="" style="edgeStyle=orthogonalEdgeStyle;rounded=0;orthogonalLoop=1;jettySize=auto;html=1;" edge="1" parent="WIyWlLk6GJQsqaUBKTNV-1" source="Z31rbEcBs2sJ0VjwFrCE-21" target="Z31rbEcBs2sJ0VjwFrCE-60">
          <mxGeometry relative="1" as="geometry" />
        </mxCell>
        <mxCell id="Z31rbEcBs2sJ0VjwFrCE-21" value="Read the receipe" style="ellipse;whiteSpace=wrap;html=1;rounded=1;glass=0;strokeWidth=1;shadow=0;" vertex="1" parent="WIyWlLk6GJQsqaUBKTNV-1">
          <mxGeometry x="33" y="680" width="80" height="80" as="geometry" />
        </mxCell>
        <mxCell id="Z31rbEcBs2sJ0VjwFrCE-27" value="" style="edgeStyle=orthogonalEdgeStyle;rounded=0;orthogonalLoop=1;jettySize=auto;html=1;" edge="1" parent="WIyWlLk6GJQsqaUBKTNV-1" source="Z31rbEcBs2sJ0VjwFrCE-25" target="Z31rbEcBs2sJ0VjwFrCE-26">
          <mxGeometry relative="1" as="geometry" />
        </mxCell>
        <mxCell id="Z31rbEcBs2sJ0VjwFrCE-25" value="Ask user for a &quot;valid&quot; category" style="whiteSpace=wrap;html=1;rounded=1;glass=0;strokeWidth=1;shadow=0;" vertex="1" parent="WIyWlLk6GJQsqaUBKTNV-1">
          <mxGeometry x="180" y="480" width="120" height="60" as="geometry" />
        </mxCell>
        <mxCell id="Z31rbEcBs2sJ0VjwFrCE-29" value="" style="edgeStyle=orthogonalEdgeStyle;rounded=0;orthogonalLoop=1;jettySize=auto;html=1;" edge="1" parent="WIyWlLk6GJQsqaUBKTNV-1" source="Z31rbEcBs2sJ0VjwFrCE-26" target="Z31rbEcBs2sJ0VjwFrCE-28">
          <mxGeometry relative="1" as="geometry" />
        </mxCell>
        <mxCell id="Z31rbEcBs2sJ0VjwFrCE-26" value="Write the name of the new receipe" style="whiteSpace=wrap;html=1;rounded=1;glass=0;strokeWidth=1;shadow=0;" vertex="1" parent="WIyWlLk6GJQsqaUBKTNV-1">
          <mxGeometry x="180" y="585" width="120" height="60" as="geometry" />
        </mxCell>
        <mxCell id="Z31rbEcBs2sJ0VjwFrCE-31" value="" style="edgeStyle=orthogonalEdgeStyle;rounded=0;orthogonalLoop=1;jettySize=auto;html=1;" edge="1" parent="WIyWlLk6GJQsqaUBKTNV-1" source="Z31rbEcBs2sJ0VjwFrCE-28" target="Z31rbEcBs2sJ0VjwFrCE-30">
          <mxGeometry relative="1" as="geometry" />
        </mxCell>
        <mxCell id="Z31rbEcBs2sJ0VjwFrCE-28" value="Write the content of the new receipe" style="whiteSpace=wrap;html=1;rounded=1;glass=0;strokeWidth=1;shadow=0;" vertex="1" parent="WIyWlLk6GJQsqaUBKTNV-1">
          <mxGeometry x="180" y="680" width="120" height="60" as="geometry" />
        </mxCell>
        <mxCell id="Z31rbEcBs2sJ0VjwFrCE-66" style="edgeStyle=orthogonalEdgeStyle;rounded=0;orthogonalLoop=1;jettySize=auto;html=1;" edge="1" parent="WIyWlLk6GJQsqaUBKTNV-1" source="Z31rbEcBs2sJ0VjwFrCE-30">
          <mxGeometry relative="1" as="geometry">
            <mxPoint x="240" y="950" as="targetPoint" />
          </mxGeometry>
        </mxCell>
        <mxCell id="Z31rbEcBs2sJ0VjwFrCE-30" value="Code creates the new file with the content" style="ellipse;whiteSpace=wrap;html=1;rounded=1;glass=0;strokeWidth=1;shadow=0;" vertex="1" parent="WIyWlLk6GJQsqaUBKTNV-1">
          <mxGeometry x="190" y="800" width="100" height="90" as="geometry" />
        </mxCell>
        <mxCell id="Z31rbEcBs2sJ0VjwFrCE-46" value="" style="edgeStyle=orthogonalEdgeStyle;rounded=0;orthogonalLoop=1;jettySize=auto;html=1;" edge="1" parent="WIyWlLk6GJQsqaUBKTNV-1" source="Z31rbEcBs2sJ0VjwFrCE-32" target="Z31rbEcBs2sJ0VjwFrCE-45">
          <mxGeometry relative="1" as="geometry" />
        </mxCell>
        <mxCell id="Z31rbEcBs2sJ0VjwFrCE-32" value="Same as Option1, but asking which receipe the user wants to delete" style="whiteSpace=wrap;html=1;rounded=1;glass=0;strokeWidth=1;shadow=0;" vertex="1" parent="WIyWlLk6GJQsqaUBKTNV-1">
          <mxGeometry x="505" y="480" width="130" height="70" as="geometry" />
        </mxCell>
        <mxCell id="Z31rbEcBs2sJ0VjwFrCE-38" value="" style="edgeStyle=orthogonalEdgeStyle;rounded=0;orthogonalLoop=1;jettySize=auto;html=1;" edge="1" parent="WIyWlLk6GJQsqaUBKTNV-1" source="Z31rbEcBs2sJ0VjwFrCE-35" target="Z31rbEcBs2sJ0VjwFrCE-37">
          <mxGeometry relative="1" as="geometry" />
        </mxCell>
        <mxCell id="Z31rbEcBs2sJ0VjwFrCE-35" value="Option3" style="rhombus;whiteSpace=wrap;html=1;rounded=1;glass=0;strokeWidth=1;shadow=0;" vertex="1" parent="WIyWlLk6GJQsqaUBKTNV-1">
          <mxGeometry x="360" y="355" width="80" height="80" as="geometry" />
        </mxCell>
        <mxCell id="Z31rbEcBs2sJ0VjwFrCE-44" value="" style="edgeStyle=orthogonalEdgeStyle;rounded=0;orthogonalLoop=1;jettySize=auto;html=1;" edge="1" parent="WIyWlLk6GJQsqaUBKTNV-1" source="Z31rbEcBs2sJ0VjwFrCE-37" target="Z31rbEcBs2sJ0VjwFrCE-43">
          <mxGeometry relative="1" as="geometry" />
        </mxCell>
        <mxCell id="Z31rbEcBs2sJ0VjwFrCE-37" value="Ask user to create a NEW category" style="whiteSpace=wrap;html=1;rounded=1;glass=0;strokeWidth=1;shadow=0;" vertex="1" parent="WIyWlLk6GJQsqaUBKTNV-1">
          <mxGeometry x="340" y="480" width="120" height="60" as="geometry" />
        </mxCell>
        <mxCell id="Z31rbEcBs2sJ0VjwFrCE-42" value="" style="edgeStyle=orthogonalEdgeStyle;rounded=0;orthogonalLoop=1;jettySize=auto;html=1;" edge="1" parent="WIyWlLk6GJQsqaUBKTNV-1" source="Z31rbEcBs2sJ0VjwFrCE-39" target="Z31rbEcBs2sJ0VjwFrCE-41">
          <mxGeometry relative="1" as="geometry" />
        </mxCell>
        <mxCell id="Z31rbEcBs2sJ0VjwFrCE-39" value="Ask user which category wants to delete" style="whiteSpace=wrap;html=1;rounded=1;glass=0;strokeWidth=1;shadow=0;" vertex="1" parent="WIyWlLk6GJQsqaUBKTNV-1">
          <mxGeometry x="680" y="480" width="120" height="60" as="geometry" />
        </mxCell>
        <mxCell id="Z31rbEcBs2sJ0VjwFrCE-67" style="edgeStyle=orthogonalEdgeStyle;rounded=0;orthogonalLoop=1;jettySize=auto;html=1;" edge="1" parent="WIyWlLk6GJQsqaUBKTNV-1" source="Z31rbEcBs2sJ0VjwFrCE-41">
          <mxGeometry relative="1" as="geometry">
            <mxPoint x="400" y="730" as="targetPoint" />
            <Array as="points">
              <mxPoint x="740" y="730" />
            </Array>
          </mxGeometry>
        </mxCell>
        <mxCell id="Z31rbEcBs2sJ0VjwFrCE-41" value="Delete the whole folder" style="ellipse;whiteSpace=wrap;html=1;rounded=1;glass=0;strokeWidth=1;shadow=0;" vertex="1" parent="WIyWlLk6GJQsqaUBKTNV-1">
          <mxGeometry x="695" y="577.5" width="90" height="95" as="geometry" />
        </mxCell>
        <mxCell id="Z31rbEcBs2sJ0VjwFrCE-63" style="edgeStyle=orthogonalEdgeStyle;rounded=0;orthogonalLoop=1;jettySize=auto;html=1;entryX=0.442;entryY=1.017;entryDx=0;entryDy=0;entryPerimeter=0;" edge="1" parent="WIyWlLk6GJQsqaUBKTNV-1" source="Z31rbEcBs2sJ0VjwFrCE-43" target="Z31rbEcBs2sJ0VjwFrCE-60">
          <mxGeometry relative="1" as="geometry">
            <mxPoint x="140" y="880" as="targetPoint" />
            <Array as="points">
              <mxPoint x="400" y="950" />
              <mxPoint x="66" y="950" />
            </Array>
          </mxGeometry>
        </mxCell>
        <mxCell id="Z31rbEcBs2sJ0VjwFrCE-43" value="Create the new folder in the Path provided" style="ellipse;whiteSpace=wrap;html=1;rounded=1;glass=0;strokeWidth=1;shadow=0;" vertex="1" parent="WIyWlLk6GJQsqaUBKTNV-1">
          <mxGeometry x="350" y="577.5" width="100" height="95" as="geometry" />
        </mxCell>
        <mxCell id="Z31rbEcBs2sJ0VjwFrCE-64" style="edgeStyle=orthogonalEdgeStyle;rounded=0;orthogonalLoop=1;jettySize=auto;html=1;" edge="1" parent="WIyWlLk6GJQsqaUBKTNV-1" source="Z31rbEcBs2sJ0VjwFrCE-45">
          <mxGeometry relative="1" as="geometry">
            <mxPoint x="400" y="730" as="targetPoint" />
            <Array as="points">
              <mxPoint x="570" y="730" />
            </Array>
          </mxGeometry>
        </mxCell>
        <mxCell id="Z31rbEcBs2sJ0VjwFrCE-45" value="Delete the receipe file" style="ellipse;whiteSpace=wrap;html=1;rounded=1;glass=0;strokeWidth=1;shadow=0;" vertex="1" parent="WIyWlLk6GJQsqaUBKTNV-1">
          <mxGeometry x="525" y="577.5" width="90" height="95" as="geometry" />
        </mxCell>
        <mxCell id="Z31rbEcBs2sJ0VjwFrCE-53" value="" style="edgeStyle=orthogonalEdgeStyle;rounded=0;orthogonalLoop=1;jettySize=auto;html=1;" edge="1" parent="WIyWlLk6GJQsqaUBKTNV-1" source="Z31rbEcBs2sJ0VjwFrCE-49" target="Z31rbEcBs2sJ0VjwFrCE-52">
          <mxGeometry relative="1" as="geometry" />
        </mxCell>
        <mxCell id="Z31rbEcBs2sJ0VjwFrCE-49" value="Option6" style="rhombus;whiteSpace=wrap;html=1;rounded=1;glass=0;strokeWidth=1;shadow=0;" vertex="1" parent="WIyWlLk6GJQsqaUBKTNV-1">
          <mxGeometry x="630" y="740" width="80" height="80" as="geometry" />
        </mxCell>
        <mxCell id="Z31rbEcBs2sJ0VjwFrCE-55" value="" style="edgeStyle=orthogonalEdgeStyle;rounded=0;orthogonalLoop=1;jettySize=auto;html=1;" edge="1" parent="WIyWlLk6GJQsqaUBKTNV-1" source="Z31rbEcBs2sJ0VjwFrCE-52" target="Z31rbEcBs2sJ0VjwFrCE-54">
          <mxGeometry relative="1" as="geometry" />
        </mxCell>
        <mxCell id="Z31rbEcBs2sJ0VjwFrCE-52" value="Ask user to Press a Key to exit the program" style="whiteSpace=wrap;html=1;rounded=1;glass=0;strokeWidth=1;shadow=0;" vertex="1" parent="WIyWlLk6GJQsqaUBKTNV-1">
          <mxGeometry x="450" y="750" width="120" height="60" as="geometry" />
        </mxCell>
        <mxCell id="Z31rbEcBs2sJ0VjwFrCE-57" value="" style="edgeStyle=orthogonalEdgeStyle;rounded=0;orthogonalLoop=1;jettySize=auto;html=1;" edge="1" parent="WIyWlLk6GJQsqaUBKTNV-1" source="Z31rbEcBs2sJ0VjwFrCE-54" target="Z31rbEcBs2sJ0VjwFrCE-56">
          <mxGeometry relative="1" as="geometry" />
        </mxCell>
        <mxCell id="Z31rbEcBs2sJ0VjwFrCE-54" value="User Presses the key" style="rhombus;whiteSpace=wrap;html=1;rounded=1;glass=0;strokeWidth=1;shadow=0;" vertex="1" parent="WIyWlLk6GJQsqaUBKTNV-1">
          <mxGeometry x="450" y="840" width="120" height="120" as="geometry" />
        </mxCell>
        <mxCell id="Z31rbEcBs2sJ0VjwFrCE-56" value="Program exits" style="ellipse;whiteSpace=wrap;html=1;rounded=1;glass=0;strokeWidth=1;shadow=0;" vertex="1" parent="WIyWlLk6GJQsqaUBKTNV-1">
          <mxGeometry x="670" y="860" width="80" height="80" as="geometry" />
        </mxCell>
        <mxCell id="Z31rbEcBs2sJ0VjwFrCE-58" value="Yes" style="text;html=1;align=center;verticalAlign=middle;resizable=0;points=[];autosize=1;strokeColor=none;fillColor=none;" vertex="1" parent="WIyWlLk6GJQsqaUBKTNV-1">
          <mxGeometry x="590" y="858" width="40" height="30" as="geometry" />
        </mxCell>
        <mxCell id="Z31rbEcBs2sJ0VjwFrCE-59" value="Notes: Clean the console when the user goes to the initial menu" style="text;html=1;align=center;verticalAlign=middle;resizable=0;points=[];autosize=1;strokeColor=none;fillColor=none;" vertex="1" parent="WIyWlLk6GJQsqaUBKTNV-1">
          <mxGeometry y="970" width="360" height="30" as="geometry" />
        </mxCell>
        <mxCell id="Z31rbEcBs2sJ0VjwFrCE-60" value="Ask user to press a key to go to the intial menu again" style="whiteSpace=wrap;html=1;rounded=1;glass=0;strokeWidth=1;shadow=0;" vertex="1" parent="WIyWlLk6GJQsqaUBKTNV-1">
          <mxGeometry x="13" y="850" width="120" height="60" as="geometry" />
        </mxCell>
      </root>
    </mxGraphModel>
  </diagram>
</mxfile>
